<svg width="581" height="404" viewBox="0 0 581 404" fill="none" xmlns="http://www.w3.org/2000/svg">
    <path d="M61.2323 81.8047C74.0393 62.7452 98.2868 51.2003 138.359 45.0857C148.205 43.583 163.625 43.2835 242.661 43.063C385.668 42.663 425.087 44.0554 454.436 50.5419C489.295 58.2457 507.55 75.1117 515.679 107.124C518.387 117.789 519.038 125.847 519.718 157.135C520.575 196.486 519.718 224.991 513.789 240.822C506.871 259.295 490.702 274.837 469.376 283.514C452.091 290.548 420.888 296.817 388.74 299.716C373.45 301.094 316.733 301.567 272.856 300.682L247.401 300.17L246.831 300.917C232.827 319.262 220.334 335.63 196.206 348.486C179.975 357.135 145.967 362 145.967 362C150.066 348.304 175.231 308.741 159.123 300.013C157.908 299.354 146.457 298.521 133.33 298.135C107.35 297.37 92.7807 295.584 80.5379 291.664C65.2021 286.753 57.7173 280.198 52.2282 266.865C48.9388 258.878 48.1332 204.631 49.9495 148.486C51.5649 98.5734 52.1028 95.395 61.2323 81.8047Z" fill="#C4C4C4" stroke="#4A4A4A" stroke-width="6" stroke-linejoin="round"/>
</svg>
