<svg width="567" height="615" viewBox="0 0 567 615" fill="none" xmlns="http://www.w3.org/2000/svg">
    <path d="M60.9188 102.199C74.0784 71.8641 98.9937 53.4894 140.169 43.7575C150.287 41.3658 166.131 40.8892 247.344 40.5382C394.289 39.9015 434.794 42.1177 464.951 52.4415C500.77 64.7028 519.527 91.5464 527.88 142.496C530.663 159.47 531.332 172.296 532.031 222.093C532.911 284.724 532.031 330.092 525.938 355.289C518.83 384.689 502.215 409.425 480.302 423.237C462.541 434.431 430.478 444.409 397.445 449.022C381.735 451.216 323.456 451.97 278.37 450.561L252.214 449.745C237.585 479.425 227.629 490.76 202.5 511.5C185.822 525.265 143.5 533.5 143.5 533.5C147.712 511.702 178.057 463.387 161.506 449.495C160.257 448.448 148.49 447.121 135.002 446.507C108.306 445.289 93.3359 442.446 80.756 436.207C64.9978 428.392 57.307 417.958 51.6667 396.737C48.2867 384.025 47.4589 297.687 49.3252 208.328C50.9851 128.888 51.5378 123.829 60.9188 102.199Z" fill="#C4C4C4" stroke="#4A4A4A" stroke-width="6" stroke-linejoin="round"/>
</svg>
