<svg width="375" height="154" viewBox="0 0 375 154" fill="none" xmlns="http://www.w3.org/2000/svg">
    <path fill-rule="evenodd" clip-rule="evenodd" d="M120.853 1.33861C119.729 4.04798 117.194 6.22679 115.166 6.22679C114.001 6.22679 111.595 5.33469 110.47 4.48545C109.66 3.87439 109.376 3.79785 109.018 4.09511C108.301 4.69117 108.492 5.10324 109.897 5.99259C114.928 9.17556 119.361 7.87017 122.097 2.4C123.007 0.581509 123.025 0.191479 122.206 0.0347335C121.55 -0.0907853 121.377 0.0760729 120.853 1.33861ZM123.43 3.76754C122.007 5.70267 121.103 8.02386 121.109 9.72662C121.116 12.0362 123.484 15.1959 126.277 16.6231L127.503 17.2492L127.844 16.61C128.032 16.2585 128.14 15.9432 128.084 15.9095C124.043 13.4558 122.774 11.9045 122.809 9.46273C122.835 7.74404 123.854 5.45256 125.25 3.97848L126.075 3.10749L125.453 2.4848L124.831 1.8618L123.43 3.76754ZM106.162 7.51932C105.933 8.13896 106.079 8.31224 107.466 9.07239C112.378 11.7649 112.95 15.2387 109.181 19.4886C107.969 20.8558 107.91 21.0006 108.374 21.4657C108.838 21.931 108.966 21.879 110.114 20.7567C111.853 19.0557 113.158 16.3249 113.158 14.3874C113.158 11.4569 111.632 9.4857 107.879 7.5674L106.42 6.82193L106.162 7.51932ZM117.508 16.0182C115.227 16.5579 112.787 19.1463 111.541 22.3483C111.097 23.4881 111.095 23.6408 111.516 23.8025C112.448 24.161 112.717 23.9595 113.227 22.5216C113.822 20.8458 115.566 18.666 116.842 18.0054C118.66 17.0637 121.181 17.6426 123.733 19.5884C124.656 20.2922 124.691 20.2956 125.199 19.7338C125.696 19.1831 125.653 19.1096 124.21 18.0482C121.75 16.2395 119.479 15.5516 117.508 16.0182ZM92.6783 17.886C91.9218 18.2294 91.0014 18.794 90.6331 19.1402C90.0529 19.6855 89.8325 19.724 88.9828 19.4274C86.2213 18.463 82.7425 19.6144 80.9659 22.0807C79.7686 23.7428 79.473 26.6055 80.28 28.7222C80.8366 30.1819 82.748 32.1231 83.9187 32.4173C84.5487 32.5756 84.674 32.8334 84.8226 34.2763C85.0433 36.4177 86.1553 38.3226 87.8463 39.4553C88.8868 40.1524 89.5907 40.363 91.2007 40.4591C92.9919 40.5663 93.4314 40.4757 94.8357 39.7103C96.5572 38.772 97.6106 37.4304 98.1886 35.4399L98.5511 34.1918L102.083 35.0364C104.025 35.5011 105.921 35.9579 106.295 36.0519C106.799 36.1789 107.016 36.0666 107.133 35.6178C107.27 35.0943 106.995 34.9262 105.105 34.3739C103.902 34.0228 101.026 33.1729 98.7122 32.4853C96.3986 31.7974 94.4579 31.2907 94.3992 31.3593C94.3405 31.4276 94.2054 31.8488 94.0984 32.2955C93.9153 33.0615 93.9915 33.1279 95.4504 33.4784C96.5988 33.7546 96.9519 33.9655 96.8241 34.2992C96.7293 34.546 96.652 34.8641 96.652 35.0058C96.652 35.1475 96.2794 35.7069 95.8239 36.249C94.8657 37.3897 92.9299 38.3584 91.6085 38.3584C89.333 38.3584 86.7199 36.2028 86.3708 34.0378C86.2109 33.0465 86.24 33.0119 87.3043 32.9378C87.9086 32.8959 88.8492 32.6711 89.3945 32.4388L90.3858 32.0163L88.6321 32.0013C85.3373 31.9734 83.1781 29.9835 82.9739 26.7865C82.84 24.6903 83.4348 23.3806 85.1414 22.0149C86.1941 21.1721 86.5322 21.0747 88.4017 21.0747C90.0932 21.0747 90.6655 21.2067 91.4299 21.7728C92.5142 22.5755 92.6716 22.3514 91.7292 21.3466L91.0857 20.6608L92.3931 19.9928C95.1087 18.6051 98.8229 19.7623 99.8939 22.3299C100.412 23.5719 100.448 25.8172 99.9652 26.8771C99.528 27.8384 99.5061 27.8384 98.0752 26.8645C96.9589 26.105 96.8941 26.0955 96.4857 26.6349C95.65 27.7395 95.5045 27.6326 104.141 32.2569C105.486 32.977 106.752 33.6949 106.955 33.8522C107.393 34.1924 107.962 33.9061 107.962 33.3456C107.962 33.1267 106.454 32.0166 104.611 30.8787L101.261 28.8101L101.831 27.6905C103.67 24.0811 102.306 19.8245 98.7403 18.0449C96.7614 17.0575 94.6263 17.0015 92.6783 17.886ZM140.417 19.409C139.971 19.5878 139.746 19.8943 139.813 20.2313C139.904 20.6918 140.208 20.7536 141.936 20.6636C143.337 20.5907 144.232 20.704 144.872 21.0352C145.985 21.6117 147.327 23.1528 147.574 24.1377C147.777 24.9496 148.329 25.2686 148.908 24.9095C149.221 24.7163 149.224 24.4423 148.925 23.534C148.423 22.0106 146.905 20.3366 145.409 19.6558C144.101 19.0606 141.593 18.9366 140.417 19.409ZM198.406 21.0521C198.341 21.1145 194.917 21.927 190.798 22.8574C186.68 23.7878 176.567 26.0747 168.326 27.9397C160.085 29.8047 153.242 31.3305 153.119 31.3305C152.823 31.3305 152.842 31.9967 153.153 32.4875C153.35 32.7982 154.661 32.6574 159.491 31.8081C162.84 31.2188 172.733 29.4906 181.476 27.9676C190.218 26.4445 197.748 25.1204 198.211 25.0255C199.013 24.8608 199.052 24.7702 199.052 23.0585C199.052 21.4917 198.792 20.6838 198.406 21.0521ZM140.416 22.633C139.306 23.4115 140.055 23.9908 141.889 23.7734C143.454 23.5876 143.92 23.8732 145.29 25.8567C145.713 26.4696 145.856 26.5146 146.275 26.1668C146.721 25.7958 146.712 25.6583 146.171 24.5963C145.079 22.4524 142.115 21.4412 140.416 22.633ZM126.455 24.4439C120.109 25.7609 114.417 31.0002 112.488 37.3003C111.488 40.5644 111.562 45.0758 112.668 48.3215C114.254 52.9767 117.438 56.7634 121.615 58.9612C124.499 60.4791 126.779 61.0264 130.22 61.0264C135.514 61.0264 139.6 59.3509 143.272 55.6738C149.015 49.9217 150.355 41.5542 146.718 34.155C145.533 31.7435 142.257 28.1733 139.964 26.7932C136.054 24.4399 130.842 23.5334 126.455 24.4439ZM163.027 33.5179C160.633 34.2083 158.087 38.0302 158.09 40.9281C158.092 42.4497 159.538 43.9773 161.472 44.5011C164.05 45.1991 168.79 43.8215 168.79 42.3743C168.79 41.4608 168.316 41.3586 167.209 42.0327C166.656 42.3698 165.513 42.7971 164.669 42.9824C162.778 43.3978 161.043 42.9031 160.146 41.6923C159.561 40.9018 159.559 40.8341 160.081 39.1724C160.727 37.1157 162.216 35.4733 163.89 34.9712C165.415 34.5132 166.284 35.0092 167.089 36.7976C167.616 37.9668 167.619 38.0942 167.144 38.8209C166.565 39.706 165.855 39.8851 166.194 39.0607C166.739 37.7345 166.687 37.5257 165.646 36.8815C163.938 35.8241 163.065 36.0859 161.58 38.1018C160.168 40.0192 161.007 42.0244 163.047 41.6062C163.6 41.493 164.792 41.3665 165.696 41.3255C167.06 41.264 167.463 41.1078 168.063 40.4092C168.46 39.9463 168.871 39.2284 168.975 38.8145C169.456 36.8941 168.109 34.4088 166.14 33.585C165.006 33.1108 164.48 33.0994 163.027 33.5179ZM195.013 33.5825C194.573 34.0228 193.709 39.0665 193.901 40.0728C193.963 40.4 194.289 40.7074 194.625 40.7561C195.165 40.8342 195.314 40.483 195.921 37.6846C196.736 33.9257 196.752 33.5951 196.123 33.3532C195.481 33.1068 195.49 33.105 195.013 33.5825ZM177.507 33.8562C177.437 34.0669 177.229 34.8246 177.047 35.54C176.802 36.497 176.561 36.8411 176.134 36.8411C175.641 36.8411 175.58 36.6789 175.727 35.7696C175.878 34.8359 175.82 34.6981 175.271 34.6981C174.832 34.6981 174.481 35.0643 174.107 35.912C173.634 36.9875 173.423 37.1485 172.265 37.3224C169.623 37.7195 169.219 39.1828 171.82 38.9342C173.071 38.8148 173.313 39.0435 172.798 39.8588C172.63 40.1233 172.293 40.1977 171.87 40.063C170.919 39.7608 169.529 40.6961 170.03 41.3007C170.23 41.542 170.804 41.7394 171.306 41.7394C172.115 41.7394 172.198 41.8221 172.036 42.4699C171.78 43.4906 172.507 44.0673 173.14 43.3454C173.398 43.0515 173.703 42.5008 173.818 42.1221C174.153 41.0209 175.151 41.2318 175.266 42.4282C175.339 43.1795 175.509 43.4232 175.961 43.4232C176.393 43.4232 176.617 43.1418 176.766 42.4126C177.039 41.0745 177.151 40.994 178.774 40.9633C179.701 40.9459 180.253 40.7763 180.433 40.4542C180.846 39.7152 179.988 39.1788 178.722 39.3846C177.643 39.5597 177.504 39.428 177.84 38.55C177.968 38.2175 178.422 38.0642 179.292 38.0611C180.805 38.0553 181.48 37.6934 181.224 37.0251C181.09 36.6764 180.64 36.535 179.665 36.535H178.293L178.736 35.278C178.979 34.5864 179.103 33.8975 179.01 33.7472C178.757 33.3373 177.654 33.4175 177.507 33.8562ZM184.498 34.0724C183.693 34.4073 182.592 35.7831 182.347 36.7603C182.245 37.1663 182.314 37.8327 182.5 38.2414C183.255 39.9019 186.289 38.6807 186.716 36.5442C186.894 35.653 187.242 35.3603 187.543 35.8483C187.622 35.9757 186.945 37.3025 186.039 38.7968C184.351 41.5824 183.75 43.3742 184.315 43.94C184.804 44.4304 185.229 43.9981 186.252 41.9699C186.769 40.9425 187.876 39.0101 188.711 37.676C189.546 36.3415 190.16 35.0695 190.076 34.849C189.983 34.6072 189.218 34.3938 188.144 34.3102C187.166 34.234 186.091 34.0889 185.755 33.9879C185.419 33.8865 184.853 33.9245 184.498 34.0724ZM146.142 36.5846C146.327 37.117 146.444 37.5676 146.401 37.5857C146.359 37.6037 145.316 37.9509 144.085 38.3568C142.854 38.7628 140.941 39.691 139.833 40.4193C138.726 41.1479 137.748 41.6721 137.66 41.5839C137.423 41.3457 139.403 39.3677 140.974 38.2745C142.44 37.2547 145.274 35.6312 145.606 35.6221C145.715 35.619 145.957 36.0522 146.142 36.5846ZM184.991 36.3914C184.991 37.0949 184.266 37.7479 183.896 37.3778C183.685 37.1656 184.422 35.6166 184.734 35.6166C184.875 35.6166 184.991 35.9652 184.991 36.3914ZM128.082 39.1843C130.594 39.9035 132.293 40.644 133.485 41.5374C134.417 42.2366 133.877 42.4203 132.539 41.8591C130.9 41.1709 127.179 40.5384 124.697 40.5255L122.634 40.5148V39.4945C122.634 38.933 122.724 38.3838 122.834 38.2736C123.118 37.9895 125.126 38.3379 128.082 39.1843ZM164.149 38.8767C164.053 39.6821 163.186 40.5142 162.822 40.1499C162.562 39.8903 163.531 38.0657 163.928 38.0657C164.103 38.0657 164.202 38.4306 164.149 38.8767ZM176.071 39.1372C175.84 39.6439 175.475 39.9026 174.989 39.9026C174.586 39.9026 174.312 39.7994 174.38 39.6729C174.448 39.5465 174.589 39.2021 174.694 38.9076C174.807 38.5904 175.197 38.3718 175.652 38.3718C176.359 38.3718 176.392 38.4315 176.071 39.1372ZM188.082 40.3869C187.156 41.5658 187.021 42.292 187.571 43.1321C188.28 44.2167 189.83 44.1555 191.072 42.9943C192.233 41.9078 192.277 41.0668 191.216 40.231C190.096 39.349 188.849 39.4112 188.082 40.3869ZM141.573 40.9594C142.383 41.936 141.188 43.4713 140.236 42.6793C139.659 42.1999 139.593 40.9361 140.134 40.7175C140.815 40.442 141.198 40.5063 141.573 40.9594ZM190.187 41.5958C190.187 42.059 189.381 42.5651 189.097 42.2804C189.016 42.1993 189.037 41.9069 189.143 41.6301C189.386 40.9955 190.187 40.9692 190.187 41.5958ZM131.625 42.7252C132.155 44.2452 130.351 45.445 129.228 44.3199C128.652 43.7428 128.601 42.6205 129.128 42.093C129.337 41.8833 129.919 41.7526 130.422 41.8022C131.099 41.8692 131.409 42.1071 131.625 42.7252ZM193.707 42.2375C193.081 42.8651 193.223 43.996 193.946 44.1341C195.212 44.3759 195.913 42.6572 194.793 42.0569C194.345 41.8169 194.084 41.8603 193.707 42.2375ZM141.401 45.0923C142.056 45.2445 142.695 45.5365 142.822 45.7413C143.423 46.7149 144.053 51.9224 143.622 52.3537C143.51 52.4658 143.083 52.3773 142.673 52.1575C141.125 51.3278 131.668 53.2574 130.506 54.6403C130.212 54.9899 129.787 55.2048 129.56 55.1179C129.114 54.9461 128.258 52.2068 127.951 49.9646C127.769 48.635 127.814 48.5183 128.788 47.7738C130.109 46.7651 134.102 45.4566 136.848 45.1327C139.822 44.7819 140.057 44.7797 141.401 45.0923ZM153.374 47.9256C153.114 48.2982 153.003 48.6919 153.127 48.8012C153.33 48.9788 162.565 50.3163 189.117 54.0133C193.825 54.6688 198.052 55.271 198.511 55.3515C199.295 55.4892 199.375 55.3952 199.84 53.7926C200.113 52.8545 200.219 51.9863 200.076 51.8633C199.933 51.7399 192.938 50.9908 184.532 50.1982C164.68 48.3264 157.386 47.6299 155.435 47.4199C154.038 47.2693 153.791 47.3299 153.374 47.9256ZM308.198 48.3628C307.476 49.2816 307.44 49.5066 307.881 50.3316C308.081 50.7057 308.52 50.9237 309.074 50.9237C310.145 50.9237 310.695 49.7356 310.243 48.398C309.88 47.3213 309.027 47.3066 308.198 48.3628ZM325.652 50.1014C324.866 50.9399 324.809 51.619 325.468 52.2796C326.73 53.5431 328.28 52.0923 327.66 50.2288C327.318 49.1995 326.544 49.1508 325.652 50.1014ZM110.687 53.4972C106.407 55.2789 102.492 58.945 100.446 63.0883C98.3928 67.2448 98.7678 70.4887 101.555 72.677C102.481 73.4047 111.133 77.2863 150.833 94.7858L159.927 98.7944L159.265 99.5004C158.096 100.747 158.763 101.428 162.784 103.096C164.728 103.902 166.428 104.553 166.561 104.542C166.694 104.532 166.872 104.07 166.957 103.516C167.088 102.655 167.221 102.522 167.874 102.597C171.879 103.06 172.429 103.037 173.846 102.35C175.45 101.572 176.931 99.7465 177.223 98.1867C177.33 97.6173 177.476 97.1514 177.548 97.1514C177.62 97.1514 178.218 97.4269 178.877 97.7636C179.536 98.1004 180.249 98.3759 180.46 98.3759C180.672 98.3759 181.563 97.6654 182.441 96.7968L184.038 95.2178L189.241 97.5622C192.103 98.8517 194.569 99.9067 194.72 99.9067C194.981 99.9067 196.912 95.9026 196.912 95.3632C196.912 95.1473 190.161 92.0244 174.485 84.9883C171.948 83.8494 170.747 83.4521 170.489 83.6664C170.243 83.8706 170.019 83.8706 169.815 83.6667C169.611 83.4625 169.317 83.5733 168.933 83.9985C168.44 84.5438 168.421 84.6775 168.802 84.9154C169.168 85.1435 169.072 85.3716 168.27 86.177C167.386 87.0649 167.214 87.1252 166.498 86.7985C166.062 86.5992 165.465 86.4363 165.171 86.4363C164.878 86.4363 160.654 84.6662 155.786 82.5027C150.918 80.3395 140.905 75.9065 133.534 72.6519L120.133 66.7345L121.154 66.2058C121.716 65.915 122.244 65.719 122.328 65.7701C122.412 65.8216 126.126 67.4726 130.581 69.4387C135.037 71.405 139.094 73.2024 139.599 73.4329C140.103 73.6634 143.06 74.9719 146.171 76.3407C149.281 77.7097 152.226 79.0261 152.716 79.2668C153.205 79.5071 153.663 79.6464 153.733 79.576C153.804 79.5056 153.506 77.2361 153.073 74.5329C152.639 71.8293 152.284 69.5654 152.284 69.5014C152.284 69.4374 155.138 70.3167 158.627 71.4552C164.079 73.2348 178.058 77.7642 188.131 81.0149C190.497 81.7787 191.077 82.0762 190.919 82.4473C190.553 83.3088 190.476 84.1369 190.727 84.5138C190.864 84.7192 192.69 85.4221 194.784 86.0757L198.593 87.2645L198.763 86.3041C199.05 84.6892 199.226 84.578 200.664 85.1083C204.915 86.6757 209.184 84.5634 210.046 80.4665C210.209 79.6914 210.383 79.5481 211.163 79.5481C211.89 79.5481 212.419 79.1896 213.646 77.8643L215.205 76.1805L220.349 77.9305C223.178 78.893 225.68 79.7196 225.91 79.7673C226.187 79.8249 226.616 79.0087 227.182 77.3466L228.036 74.839L224.777 73.7247C209.14 68.3779 200.759 65.6611 200.468 65.8445C200.277 65.9645 199.892 66.0249 199.612 65.9786C199.07 65.8895 198.57 66.9228 198.898 67.4548C199.004 67.626 198.793 68.1844 198.429 68.6962C197.81 69.5672 197.676 69.6144 196.346 69.4356C195.564 69.3303 184.884 65.9988 172.611 62.0327C160.338 58.0663 149.652 54.625 148.864 54.3856L147.432 53.9506L144.738 56.6621C142.558 58.8559 141.548 59.6173 139.446 60.649C136.219 62.2327 133.638 62.8529 130.248 62.8587C123.732 62.87 117.267 59.5199 113.732 54.3005C113.164 53.4623 112.631 52.7786 112.547 52.7814C112.463 52.7841 111.626 53.1062 110.687 53.4972ZM264.682 55.0946C264.389 55.3882 264.416 56.1891 264.736 56.6954C265.152 57.3515 266.361 56.5708 266.241 55.7247C266.147 55.064 265.125 54.651 264.682 55.0946ZM94.3607 57.4155C92.6373 58.9349 92.067 60.1374 92.067 62.251C92.067 63.8411 92.7303 65.9247 93.2368 65.9247C93.86 65.9247 94.2571 65.0608 93.9221 64.4338C93.4461 63.5429 93.5222 61.1198 94.0624 59.9804C94.3191 59.4385 95.1444 58.6055 95.8964 58.1294C96.7134 57.612 97.2634 57.0356 97.2634 56.696C97.2634 55.7023 95.9288 56.0333 94.3607 57.4155ZM96.9702 59.0729C96.4469 59.5141 95.8172 60.2647 95.5712 60.7414C94.696 62.4365 95.2734 65.1594 96.5083 65.1594C97.1359 65.1594 97.1359 65.1597 96.7574 62.8018C96.593 61.7774 96.6963 61.5454 97.8349 60.382C98.8128 59.3828 99.0179 59.0035 98.7526 58.6832C98.2773 58.1095 98.0559 58.1579 96.9702 59.0729ZM282.703 63.9859C282.314 64.3756 282.502 65.554 282.983 65.7389C283.883 66.0845 284.334 65.9281 284.334 65.2696C284.334 64.3836 283.199 63.49 282.703 63.9859ZM235.573 72.4223C232.719 74.122 230.289 75.6564 230.174 75.8321C229.713 76.5357 230.336 76.5375 232.733 75.8398C234.113 75.4378 235.355 75.109 235.493 75.109C235.631 75.109 235.457 75.6736 235.106 76.3633C234.754 77.053 234.545 77.6962 234.641 77.7921C234.784 77.935 239.645 76.9327 242.74 76.1221L243.48 75.928L242.663 77.0016C242.213 77.5922 241.845 78.1656 241.845 78.2758C241.845 78.3863 242.705 78.4928 243.756 78.5127C244.807 78.5326 246.079 78.6373 246.583 78.7454L247.499 78.9416L246.048 79.7937C245.25 80.262 244.596 80.7176 244.596 80.8054C244.596 80.8936 245.731 81.4903 247.118 82.1317L249.639 83.2978L247.118 83.5213C245.731 83.6443 244.596 83.8029 244.596 83.8736C244.596 83.9447 245.092 84.9886 245.698 86.1942C246.721 88.2288 246.749 88.3519 246.08 87.9141C243.785 86.4094 242.1 85.4668 241.959 85.6082C241.87 85.697 241.957 87.1028 242.151 88.7324C242.345 90.362 242.446 91.7537 242.375 91.8251C242.304 91.8964 240.677 90.2429 238.759 88.1504C236.842 86.0583 235.183 84.3344 235.072 84.32C234.962 84.3053 234.695 84.9822 234.48 85.8241C234.264 86.666 234.011 87.3536 233.917 87.352C233.822 87.3505 232.652 85.6238 231.316 83.5151C229.003 79.8641 228.868 79.714 228.5 80.3796C228.286 80.7641 228.107 81.2855 228.102 81.5381C228.092 81.9676 232.299 92.5525 232.923 93.6696C233.15 94.0746 233.483 93.6016 234.547 91.3698L235.885 88.5597L240.616 93.9081C243.218 96.8495 245.399 99.205 245.461 99.1425C245.524 99.0801 245.274 97.2303 244.906 95.0322C244.538 92.8338 244.284 90.9018 244.341 90.7389C244.397 90.576 246.435 91.3928 248.869 92.5543C251.303 93.7155 253.35 94.6095 253.418 94.5409C253.487 94.4723 252.425 92.6654 251.059 90.5255C249.693 88.3859 248.636 86.5741 248.71 86.4997C248.785 86.4256 251.676 86.5377 255.135 86.7495C258.594 86.9611 261.479 87.0802 261.545 87.014C261.611 86.9476 258.994 85.6548 255.729 84.1406C252.464 82.6267 249.797 81.3182 249.803 81.2334C249.809 81.1483 251.889 80.1197 254.427 78.9478C259.735 76.4953 259.746 76.5396 253.726 76.179C251.647 76.0547 249.334 75.8655 248.586 75.759L247.227 75.5655L248.968 73.5094C249.926 72.3789 250.71 71.3842 250.71 71.2991C250.71 71.127 250.903 71.0955 244.188 72.3605C241.525 72.8619 239.288 73.2722 239.216 73.2722C239.144 73.2722 239.509 72.4315 240.027 71.4044C240.545 70.377 240.923 69.4904 240.866 69.4341C240.81 69.3777 238.428 70.7226 235.573 72.4223ZM319.499 71.0676C319.063 72.6498 319.58 73.1133 321.465 72.8301C322.873 72.6186 322.885 72.6066 322.683 71.6432C322.424 70.4125 322.327 70.3274 320.946 70.1183C319.848 69.9517 319.798 69.9845 319.499 71.0676ZM309.016 71.9493C308.383 72.1189 308.384 72.1101 308.836 73.1047C309.243 73.9977 309.379 74.0372 310.138 73.4816C311.232 72.6801 310.422 71.5731 309.016 71.9493ZM211.584 74.9489C212.509 75.2468 213.368 75.5836 213.494 75.6971C213.62 75.811 213.206 76.4098 212.574 77.0279C211.089 78.4797 210.427 78.3168 209.524 76.2776C208.851 74.7573 208.861 74.0238 209.552 74.2782C209.745 74.3495 210.659 74.6514 211.584 74.9489ZM294.161 77.0227C293.967 77.2162 293.809 77.9103 293.809 78.5648V79.7551L295.109 79.5402C296.698 79.2772 296.678 79.2946 296.44 78.3434C296.199 77.3828 294.68 76.5026 294.161 77.0227ZM108.698 79.0124C108.793 79.4756 110.115 87.7757 111.635 97.4575C113.156 107.139 114.602 116.246 114.85 117.695C115.261 120.096 115.248 120.963 114.705 127.471C114.377 131.4 114.173 134.718 114.252 134.846C114.433 135.14 134.547 135.166 134.58 134.872C134.594 134.752 134.766 132.795 134.962 130.523L135.319 126.392L138.529 125.877C143.701 125.047 143.007 124.588 144.976 130.14L146.685 134.96L157.317 135.031C163.165 135.07 168.059 135.034 168.194 134.951C168.329 134.867 168.021 133.664 167.511 132.277C158.527 107.861 158.286 107.152 157.643 103.28L157.01 99.46L146.776 94.9266C141.147 92.4334 134.41 89.4534 131.804 88.3041C129.198 87.1549 122.975 84.4048 117.975 82.1926C112.974 79.9804 108.802 78.1705 108.704 78.1705C108.605 78.1705 108.603 78.5492 108.698 79.0124ZM271.507 79.6795C271.253 80.1543 271.862 82.1503 272.26 82.1503C272.432 82.1503 274.283 81.2549 274.5 81.0666C274.555 81.0182 274.378 80.6374 274.104 80.2198C273.494 79.2876 271.894 78.9548 271.507 79.6795ZM262.076 81.9097C261.877 82.1093 261.714 82.5897 261.714 82.9769C261.714 83.5552 261.878 83.6811 262.631 83.6811C263.318 83.6811 263.548 83.5396 263.548 83.1162C263.548 82.2765 262.537 81.448 262.076 81.9097ZM79.8401 82.5685C79.2517 82.7835 73.5434 86.3096 67.1548 90.4043C60.7663 94.4986 54.3325 98.6218 52.8574 99.5665C44.3417 105.02 43.7934 105.423 42.9763 106.819C41.8129 108.807 41.6631 111.506 42.6092 113.427C43.0286 114.278 48.527 120.737 56.2265 129.423L69.1404 143.991H51.1065H-255C-255 152.155 -255 145.836 -255 154H406V136.644L316.2 136.645L293.657 136.647L283.624 140.319C273.803 143.914 273.539 143.991 271.091 143.977L268.592 143.963L276.386 141.102C290.84 135.796 319.612 125.273 323.09 124.021C325.163 123.274 326.661 122.557 326.838 122.224C327.049 121.83 326.25 116.232 324.068 102.797C322.381 92.4169 320.862 83.6624 320.691 83.3431C320.196 82.4161 319.114 82.6255 313.183 84.7948L307.627 86.8267L304.951 90.779L302.276 94.731L300.416 94.6636C298.8 94.6055 298.288 94.4227 296.511 93.2716C295.387 92.543 294.282 91.9469 294.057 91.9469C293.171 91.9469 274.975 98.7574 274.43 99.2928C273.859 99.8531 273.871 100.004 275.123 107.753C275.823 112.093 276.542 115.733 276.719 115.843C276.896 115.952 278.138 116.293 279.479 116.6C280.821 116.907 281.981 117.259 282.057 117.383C282.133 117.507 282.034 118.308 281.837 119.165C281.502 120.619 281.349 120.802 279.52 121.951C277.739 123.07 277.578 123.257 277.735 124.019C278.301 126.759 279.779 136.716 279.64 136.855C279.549 136.946 275.179 138.595 269.931 140.518C260.529 143.963 260.353 144.014 258.07 143.927L255.753 143.838L264.924 140.505C269.967 138.672 274.224 137.053 274.384 136.908C274.547 136.76 237.899 136.644 190.86 136.644H107.045V140.318V143.991H106.128H105.211V139.552V135.113L108.344 135.065C110.067 135.038 111.646 135.023 111.852 135.03C112.343 135.047 112.446 134.313 113.023 126.694C113.493 120.472 113.489 120.145 112.899 116.517C112.507 114.106 112.09 112.516 111.73 112.06C111.265 111.47 96.5814 94.8342 90.8788 88.4367C87.053 84.1446 85.9239 83.1162 84.5056 82.6322C82.8201 82.057 81.2957 82.0362 79.8401 82.5685ZM296.732 84.7887C296.489 85.7552 296.487 85.7524 297.632 85.8773C298.403 85.9615 298.531 85.8807 298.442 85.3648C298.189 83.8996 297.05 83.516 296.732 84.7887ZM281.089 84.958C280.604 85.3235 280.097 85.716 279.963 85.8299C279.425 86.2869 280.533 87.7384 281.979 88.4725C282.803 88.8907 283.516 89.1892 283.562 89.1356C283.609 89.0823 283.94 88.456 284.299 87.7442L284.95 86.4498L283.801 85.3798C282.445 84.1167 282.246 84.0858 281.089 84.958ZM328.106 85.6358C326.699 86.6516 326.727 86.5888 327.241 87.5844C327.551 88.186 328.172 88.6617 329.116 89.0229C329.892 89.3196 330.56 89.5137 330.6 89.4537C331.017 88.8276 332.226 85.4937 332.07 85.3976C331.958 85.3281 331.246 85.1897 330.49 85.0899C329.351 84.9396 328.941 85.0336 328.106 85.6358ZM297.856 88.2395C297.475 88.5683 297.017 88.8861 296.839 88.9455C296.643 89.011 296.599 89.3903 296.727 89.9016C296.881 90.5172 297.357 90.9611 298.468 91.5251C299.309 91.9518 300.098 92.1869 300.221 92.0473C300.673 91.5373 301.86 88.2747 301.665 88.0797C301.555 87.9689 300.808 87.8253 300.006 87.7604C298.882 87.6692 298.389 87.7794 297.856 88.2395ZM269.76 89.9992C269.368 90.1597 269.822 91.9469 270.255 91.9469C270.658 91.9469 271.495 90.8448 271.495 90.3155C271.495 89.8174 270.603 89.6548 269.76 89.9992ZM203.647 93.973C196.832 97.2812 196.277 97.9051 200.931 97.0261C202.314 96.765 203.502 96.6083 203.572 96.6781C203.641 96.7479 203.321 97.2998 202.861 97.9051C202.4 98.51 202.109 99.0914 202.215 99.1973C202.383 99.3651 206.147 99.0096 209.903 98.4711L211.126 98.296L210.109 99.3691L209.093 100.442L210.109 100.618C210.668 100.715 211.813 100.887 212.654 101.001C215.021 101.321 215.149 101.544 213.43 102.35C212.583 102.748 211.894 103.152 211.899 103.25C211.904 103.347 213.039 104.083 214.421 104.885L216.933 106.344L214.259 106.145C212.788 106.035 211.585 105.999 211.585 106.064C211.586 106.129 211.988 107.258 212.477 108.572C212.968 109.887 213.208 110.84 213.012 110.691C212.815 110.543 211.85 109.777 210.868 108.991C209.886 108.204 208.992 107.56 208.881 107.56C208.771 107.559 208.723 109.109 208.776 111.004L208.872 114.448L207.553 112.75C206.828 111.815 205.341 109.859 204.248 108.402C203.155 106.945 202.172 105.747 202.062 105.739C201.953 105.73 201.616 106.413 201.314 107.255C201.012 108.097 200.672 108.682 200.559 108.556C200.447 108.429 199.487 106.638 198.426 104.575C197.366 102.513 196.402 100.825 196.284 100.825C196.166 100.825 195.9 101.233 195.694 101.732C195.358 102.545 195.5 103.242 197.05 108.391C198.003 111.554 198.852 114.385 198.939 114.683C199.167 115.469 199.461 115.164 200.937 112.613C201.665 111.354 202.355 110.321 202.47 110.319C202.584 110.317 203.543 111.521 204.6 112.994C205.657 114.468 207.542 117.051 208.788 118.734L211.054 121.796L210.829 117.28C210.705 114.797 210.667 112.765 210.744 112.765C210.822 112.765 212.794 113.926 215.127 115.346C217.461 116.765 219.414 117.882 219.469 117.828C219.524 117.773 218.596 115.785 217.408 113.41C216.22 111.034 215.313 109.091 215.392 109.091C215.757 109.091 227.083 110.978 227.555 111.117C229.093 111.571 227.53 110.451 222.591 107.56C219.571 105.792 217.097 104.267 217.093 104.17C217.089 104.073 219.218 103.252 221.824 102.346C224.43 101.44 226.562 100.62 226.562 100.525C226.562 100.43 224.258 99.9639 221.442 99.4894C218.626 99.0152 216.011 98.5553 215.632 98.4675C215 98.3217 215.109 98.1433 216.931 96.3548C218.025 95.2802 218.92 94.3443 218.92 94.2748C218.92 94.2057 218.198 94.2118 217.315 94.2886C216.433 94.3654 213.819 94.5963 211.508 94.8017C209.196 95.0068 207.306 95.1029 207.307 95.0151C207.308 94.9272 207.59 94.442 207.933 93.9369C208.886 92.5338 209.487 91.3319 209.223 91.3579C209.093 91.3708 206.583 92.5476 203.647 93.973ZM180.635 93.6757C181.686 94.1224 182.545 94.5779 182.545 94.6881C182.545 94.798 182.071 95.3491 181.491 95.9124L180.436 96.9361L178.977 96.304C177.28 95.5683 176.693 94.3725 177.559 93.4146C178.205 92.7 178.373 92.7141 180.635 93.6757ZM269.881 97.6899C269.526 98.0826 269.441 98.5798 269.568 99.5267C269.738 100.8 269.765 100.825 270.924 100.825C271.575 100.825 272.11 100.722 272.114 100.595C272.118 100.469 272.242 99.8457 272.389 99.2099C272.64 98.1304 272.6 98.0242 271.786 97.6026C270.673 97.0261 270.472 97.0353 269.881 97.6899ZM331.771 99.8638C331.196 100.229 331.634 101.804 332.277 101.68C332.814 101.576 333.6 100.242 333.357 99.8473C333.16 99.5289 332.284 99.538 331.771 99.8638ZM306.318 102.497C307.139 102.922 307.551 103.71 307.56 104.875C307.563 105.185 307.071 105.657 306.377 106.011L305.19 106.618L304.085 105.673C303.174 104.894 302.979 104.522 302.979 103.564C302.979 102.713 303.123 102.363 303.514 102.261C304.577 101.983 305.471 102.058 306.318 102.497ZM260.237 107.105C259.888 107.55 259.701 108.132 259.793 108.487C259.977 109.19 260.048 109.243 261.143 109.505C261.832 109.669 262.004 109.562 262.332 108.768C263.141 106.813 261.494 105.505 260.237 107.105ZM299.418 109.005L300.78 110.449L299.758 112.482L298.736 114.515L297.113 114.392C293.732 114.134 293.548 114.058 292.601 112.534L291.716 111.111L292.932 109.656C293.859 108.548 294.452 108.134 295.43 107.914C297.699 107.404 297.981 107.482 299.418 109.005ZM268.548 108.184C266.733 108.879 266.692 111.234 268.494 111.234C269.702 111.234 270.255 110.061 269.637 108.811C269.28 108.089 269.086 107.978 268.548 108.184ZM334.005 108.169C333.669 108.3 333.148 108.68 332.847 109.015C332.088 109.86 332.655 111.123 333.874 111.303C334.597 111.409 334.801 111.283 335.106 110.546C335.615 109.316 334.92 107.815 334.005 108.169ZM263.995 117.445C263.544 119.245 265.361 120.707 266.493 119.455C267.16 118.716 266.66 117.479 265.519 117.045C264.383 116.612 264.191 116.662 263.995 117.445ZM329.409 117.445C328.958 119.245 330.774 120.707 331.906 119.455C332.573 118.716 332.073 117.479 330.932 117.045C329.797 116.612 329.605 116.662 329.409 117.445ZM274.911 118.678C274.545 119.067 274.247 119.515 274.249 119.672C274.251 119.957 276.091 121.337 276.468 121.337C276.861 121.337 277.046 119.244 276.709 118.614C276.263 117.78 275.736 117.798 274.911 118.678ZM257.839 127.343C257.576 127.455 257.563 127.738 257.792 128.396C258.144 129.407 258.305 129.469 259.091 128.894C260.181 128.095 259.132 126.795 257.839 127.343ZM324.135 127.407C323.841 127.598 323.82 127.871 324.051 128.48C324.222 128.929 324.468 129.294 324.598 129.292C325.14 129.281 325.589 128.763 325.668 128.06C325.73 127.505 325.592 127.288 325.141 127.229C324.804 127.186 324.352 127.265 324.135 127.407ZM333.686 128.823C333.273 129.237 332.935 129.709 332.935 129.874C332.935 130.22 334.56 131.439 335.021 131.439C335.503 131.439 335.747 129.802 335.401 128.89C335.016 127.876 334.646 127.862 333.686 128.823ZM222.973 129.948C222.492 131.224 222.904 131.747 224.383 131.741C226.049 131.734 226.418 131.389 226.069 130.165C225.809 129.251 225.649 129.134 224.561 129.053C223.439 128.969 223.315 129.039 222.973 129.948ZM243.704 130.036C242.86 130.935 243.069 131.951 244.184 132.375C245.275 132.791 245.342 132.762 245.735 131.721C245.996 131.027 246.001 130.584 245.752 130.038C245.324 129.095 244.587 129.094 243.704 130.036ZM270.379 130.072C270.278 130.338 270.319 130.996 270.472 131.533C270.701 132.338 270.924 132.528 271.732 132.607C272.54 132.685 272.778 132.561 273.077 131.905C273.386 131.224 273.353 131.025 272.85 130.545C271.992 129.728 270.613 129.464 270.379 130.072ZM314.519 130.426C313.599 130.666 313.85 132.342 315.011 133.717L316.03 134.922L317.605 133.592C318.471 132.861 319.18 132.153 319.18 132.019C319.18 131.886 318.72 131.425 318.158 130.996C317.178 130.247 315.941 130.054 314.519 130.426ZM307.142 132.833C306.914 133.428 306.892 134.95 307.108 135.167C307.451 135.51 309.548 134.932 309.637 134.469C309.852 133.352 307.527 131.828 307.142 132.833ZM328.103 132.621C327.528 132.987 327.966 134.561 328.609 134.437C329.146 134.333 329.932 132.999 329.689 132.605C329.492 132.286 328.616 132.295 328.103 132.621Z" fill="#666666"/>
</svg>
