<svg width="1367" height="319" viewBox="0 0 1367 319" fill="none" xmlns="http://www.w3.org/2000/svg">
    <path fill-rule="evenodd" clip-rule="evenodd" d="M775.138 2.77283C772.804 8.38509 767.542 12.8984 763.332 12.8984C760.915 12.8984 755.921 11.0504 753.585 9.2913C751.904 8.02552 751.314 7.86697 750.571 8.48273C749.083 9.71743 749.479 10.571 752.397 12.4132C762.839 19.0065 772.041 16.3025 777.719 4.97143C779.607 1.20456 779.644 0.396635 777.944 0.071948C776.584 -0.188055 776.225 0.15758 775.138 2.77283ZM780.485 7.80418C777.533 11.8127 775.656 16.6208 775.667 20.148C775.683 24.9321 780.598 31.4772 786.396 34.4336L788.939 35.7305L789.648 34.4063C790.037 33.6783 790.262 33.0251 790.146 32.9554C781.758 27.8726 779.124 24.6594 779.198 19.6014C779.25 16.0412 781.366 11.2946 784.264 8.24113L785.975 6.43694L784.684 5.14708L783.393 3.85659L780.485 7.80418ZM744.644 15.5757C744.168 16.8593 744.47 17.2182 747.349 18.7928C757.546 24.3702 758.733 31.5659 750.91 40.3693C748.393 43.2014 748.271 43.5013 749.235 44.4646C750.199 45.4285 750.463 45.3207 752.846 42.9959C756.456 39.4726 759.165 33.8159 759.165 29.8024C759.165 23.7322 755.997 19.6489 748.207 15.6753L745.179 14.1311L744.644 15.5757ZM768.193 33.1805C763.46 34.2985 758.395 39.6603 755.809 46.2929C754.887 48.6538 754.882 48.9703 755.755 49.3051C757.691 50.0477 758.25 49.6305 759.308 46.6518C760.542 43.1805 764.163 38.6653 766.811 37.2968C770.585 35.3461 775.817 36.5453 781.114 40.576C783.03 42.0339 783.104 42.0409 784.158 40.8772C785.19 39.7364 785.101 39.5842 782.104 37.3856C776.998 33.639 772.284 32.214 768.193 33.1805ZM716.656 37.0495C715.086 37.761 713.175 38.9304 712.411 39.6476C711.207 40.7771 710.749 40.8569 708.985 40.2425C703.254 38.2449 696.033 40.6299 692.345 45.7387C689.86 49.1815 689.247 55.1114 690.922 59.496C692.077 62.5196 696.044 66.5408 698.474 67.1502C699.782 67.4781 700.042 68.0121 700.35 71.0008C700.808 75.4367 703.117 79.3824 706.626 81.7288C708.786 83.1728 710.247 83.6091 713.589 83.8082C717.307 84.0301 718.219 83.8424 721.134 82.257C724.707 80.3134 726.894 77.5345 728.093 73.4112L728.846 70.8258L736.177 72.5754C740.209 73.5381 744.143 74.4842 744.919 74.6789C745.966 74.9421 746.415 74.7094 746.659 73.7797C746.943 72.6953 746.373 72.3471 742.449 71.2031C739.953 70.4757 733.982 68.7153 729.18 67.291C724.378 65.8661 720.35 64.8165 720.228 64.9586C720.106 65.1 719.826 65.9726 719.604 66.8978C719.224 68.4845 719.382 68.6221 722.41 69.3482C724.794 69.9202 725.526 70.3572 725.261 71.0484C725.065 71.5595 724.904 72.2184 724.904 72.512C724.904 72.8056 724.131 73.9642 723.185 75.0873C721.196 77.4501 717.178 79.4566 714.435 79.4566C709.712 79.4566 704.288 74.9916 703.564 70.5068C703.232 68.4534 703.292 68.3818 705.502 68.2283C706.756 68.1414 708.708 67.6759 709.84 67.1946L711.898 66.3195L708.258 66.2884C701.419 66.2307 696.937 62.1087 696.513 55.4862C696.235 51.1442 697.47 48.4313 701.012 45.6023C703.197 43.8565 703.899 43.6548 707.779 43.6548C711.29 43.6548 712.478 43.9282 714.065 45.1007C716.315 46.7635 716.642 46.2993 714.686 44.218L713.35 42.7975L716.064 41.4137C721.701 38.5391 729.41 40.9362 731.633 46.2548C732.709 48.8276 732.782 53.4785 731.781 55.674C730.874 57.6652 730.828 57.6652 727.858 55.6479C725.541 54.0746 725.407 54.0549 724.559 55.1723C722.824 57.4604 722.522 57.239 740.448 66.8179C743.24 68.3095 745.869 69.7966 746.289 70.1225C747.198 70.8271 748.379 70.2341 748.379 69.073C748.379 68.6195 745.25 66.3201 741.425 63.963L734.47 59.678L735.654 57.3589C739.471 49.8822 736.639 41.065 729.239 37.3786C725.131 35.3335 720.699 35.2174 716.656 37.0495ZM815.744 40.2044C814.818 40.5748 814.351 41.2095 814.49 41.9077C814.68 42.8615 815.31 42.9896 818.896 42.8031C821.805 42.6522 823.664 42.8868 824.991 43.573C827.301 44.7671 830.087 47.9595 830.6 49.9995C831.022 51.6813 832.166 52.3421 833.37 51.5982C834.018 51.1981 834.025 50.6305 833.404 48.749C832.362 45.5935 829.212 42.1259 826.107 40.7155C823.391 39.4827 818.185 39.2259 815.744 40.2044ZM936.11 43.6079C935.974 43.7373 928.868 45.4203 920.319 47.3475C911.769 49.2747 890.779 54.0118 873.674 57.8751C856.569 61.7384 842.365 64.899 842.11 64.899C841.494 64.899 841.534 66.2789 842.179 67.2954C842.588 67.9391 845.31 67.6474 855.335 65.8883C862.287 64.6675 882.822 61.0877 900.967 57.9328C919.113 54.7779 934.744 52.0352 935.704 51.8386C937.368 51.4974 937.449 51.3097 937.449 47.7641C937.449 44.5185 936.91 42.845 936.11 43.6079ZM815.743 46.8827C813.439 48.4953 814.993 49.6951 818.799 49.2449C822.048 48.86 823.016 49.4516 825.859 53.5603C826.738 54.8299 827.034 54.9231 827.903 54.2027C828.83 53.4341 828.811 53.1494 827.688 50.9495C825.421 46.5085 819.27 44.4139 815.743 46.8827ZM786.764 50.6337C773.591 53.3618 761.777 64.2147 757.773 77.265C755.698 84.0263 755.851 93.3712 758.147 100.095C761.44 109.737 768.049 117.581 776.717 122.134C782.704 125.278 787.437 126.412 794.578 126.412C805.568 126.412 814.049 122.941 821.67 115.324C833.591 103.409 836.372 86.0766 828.823 70.7497C826.363 65.7545 819.564 58.359 814.805 55.5002C806.688 50.6255 795.87 48.7477 786.764 50.6337ZM862.676 69.43C857.705 70.86 852.42 78.7768 852.428 84.7797C852.432 87.9314 855.434 91.0959 859.448 92.1809C864.799 93.6268 874.637 90.7731 874.637 87.7754C874.637 85.8831 873.654 85.6713 871.356 87.0677C870.207 87.7659 867.834 88.6512 866.083 89.0349C862.157 89.8954 858.557 88.8706 856.696 86.3626C855.48 84.7252 855.476 84.585 856.56 81.1428C857.901 76.8826 860.99 73.4804 864.465 72.4404C867.632 71.4917 869.436 72.519 871.107 76.2237C872.2 78.6455 872.207 78.9093 871.22 80.4148C870.018 82.2482 868.545 82.6192 869.248 80.9114C870.38 78.1642 870.271 77.7317 868.111 76.3975C864.565 74.2071 862.754 74.7493 859.672 78.9252C856.74 82.8969 858.482 87.0506 862.716 86.1844C863.864 85.9497 866.338 85.6878 868.214 85.6029C871.045 85.4754 871.882 85.152 873.127 83.7048C873.953 82.746 874.804 81.2589 875.02 80.4015C876.018 76.4235 873.222 71.2754 869.136 69.5689C866.783 68.5866 865.69 68.5631 862.676 69.43ZM929.066 69.5638C928.153 70.4757 926.36 80.9234 926.758 83.0079C926.888 83.6858 927.563 84.3225 928.26 84.4233C929.382 84.585 929.69 83.8577 930.95 78.0609C932.644 70.2747 932.675 69.5898 931.37 69.0888C930.038 68.5783 930.056 68.5746 929.066 69.5638ZM892.731 70.1308C892.584 70.5671 892.154 72.1366 891.775 73.6186C891.267 75.601 890.766 76.3138 889.879 76.3138C888.857 76.3138 888.73 75.9777 889.036 74.0942C889.35 72.1601 889.228 71.8747 888.09 71.8747C887.177 71.8747 886.449 72.6331 885.674 74.3891C884.691 76.6169 884.254 76.9505 881.85 77.3107C876.365 78.1332 875.527 81.1644 880.927 80.6495C883.523 80.4021 884.025 80.8759 882.955 82.5646C882.607 83.1125 881.909 83.2666 881.03 82.9876C879.057 82.3617 876.171 84.299 877.211 85.5515C877.625 86.0512 878.818 86.4602 879.859 86.4602C881.539 86.4602 881.711 86.6314 881.374 87.9733C880.843 90.0876 882.352 91.2823 883.666 89.787C884.2 89.1782 884.834 88.0374 885.073 87.2529C885.769 84.9719 887.84 85.4088 888.08 87.8871C888.229 89.4433 888.583 89.9481 889.521 89.9481C890.418 89.9481 890.883 89.3653 891.192 87.8547C891.759 85.0828 891.991 84.9161 895.36 84.8527C897.284 84.8165 898.431 84.4652 898.804 83.798C899.662 82.2672 897.88 81.1561 895.252 81.5823C893.012 81.945 892.723 81.6723 893.422 79.8536C893.686 79.1649 894.63 78.8472 896.435 78.8409C899.576 78.8288 900.977 78.0793 900.445 76.6949C900.168 75.9726 899.233 75.6796 897.209 75.6796H894.362L895.281 73.0758C895.786 71.6432 896.043 70.2164 895.85 69.905C895.325 69.0559 893.036 69.222 892.731 70.1308ZM907.241 70.5785C905.57 71.2722 903.284 74.1221 902.776 76.1464C902.566 76.9872 902.708 78.3678 903.094 79.2144C904.662 82.654 910.959 80.1244 911.845 75.6986C912.214 73.8526 912.936 73.2464 913.561 74.2572C913.725 74.521 912.32 77.2694 910.439 80.3647C906.935 86.1349 905.688 89.8466 906.86 91.0185C907.877 92.0344 908.759 91.139 910.881 86.9377C911.956 84.8095 914.253 80.8067 915.986 78.0431C917.719 75.2788 918.994 72.6439 918.819 72.1873C918.626 71.6863 917.038 71.2443 914.809 71.0712C912.78 70.9133 910.548 70.6127 909.85 70.4034C909.152 70.1935 907.978 70.2722 907.241 70.5785ZM827.628 75.7823C828.012 76.8851 828.254 77.8186 828.166 77.856C828.077 77.8934 825.914 78.6126 823.359 79.4534C820.803 80.2943 816.832 82.2171 814.533 83.7257C812.235 85.235 810.205 86.3207 810.023 86.1381C809.529 85.6447 813.641 81.5474 816.901 79.2829C819.943 77.1705 825.827 73.8076 826.514 73.7886C826.742 73.7822 827.243 74.6795 827.628 75.7823ZM908.264 75.3822C908.264 76.8395 906.759 78.1921 905.992 77.4254C905.553 76.986 907.082 73.7771 907.731 73.7771C908.024 73.7771 908.264 74.4994 908.264 75.3822ZM790.141 81.1676C795.355 82.6572 798.883 84.1912 801.355 86.0417C803.291 87.4901 802.169 87.8706 799.392 86.7082C795.99 85.2826 788.268 83.9724 783.116 83.9458L778.833 83.9236V81.81C778.833 80.6469 779.02 79.5093 779.248 79.281C779.837 78.6925 784.005 79.4141 790.141 81.1676ZM865.004 80.5302C864.804 82.1987 863.004 83.9223 862.249 83.1677C861.711 82.6299 863.721 78.8504 864.544 78.8504C864.908 78.8504 865.114 79.6063 865.004 80.5302ZM889.749 81.0699C889.27 82.1194 888.512 82.6553 887.504 82.6553C886.667 82.6553 886.098 82.4416 886.24 82.1797C886.38 81.9178 886.674 81.2044 886.891 80.5943C887.125 79.9373 887.936 79.4845 888.879 79.4845C890.348 79.4845 890.415 79.6082 889.749 81.0699ZM914.681 83.6585C912.759 86.1006 912.478 87.6049 913.619 89.345C915.091 91.5918 918.309 91.465 920.886 89.0596C923.296 86.809 923.387 85.067 921.185 83.3357C918.861 81.5087 916.271 81.6375 914.681 83.6585ZM818.145 84.8444C819.825 86.8674 817.346 90.0476 815.368 88.4071C814.171 87.414 814.035 84.7962 815.156 84.3434C816.571 83.7727 817.365 83.9059 818.145 84.8444ZM919.05 86.1628C919.05 87.1223 917.376 88.1706 916.786 87.5808C916.619 87.4127 916.662 86.8071 916.882 86.2338C917.387 84.9192 919.05 84.8647 919.05 86.1628ZM797.495 88.5022C798.596 91.6507 794.852 94.136 792.519 91.8055C791.324 90.6101 791.219 88.2853 792.312 87.1927C792.747 86.7583 793.955 86.4875 794.998 86.5902C796.404 86.7291 797.048 87.2218 797.495 88.5022ZM926.356 87.492C925.055 88.792 925.351 91.1346 926.852 91.4206C929.48 91.9216 930.935 88.3614 928.61 87.1178C927.681 86.6207 927.138 86.7107 926.356 87.492ZM817.787 93.4055C819.146 93.7207 820.474 94.3256 820.736 94.7499C821.983 96.7665 823.291 107.553 822.397 108.447C822.165 108.679 821.278 108.496 820.426 108.04C817.213 106.322 797.585 110.319 795.172 113.183C794.562 113.908 793.68 114.353 793.21 114.173C792.283 113.817 790.507 108.143 789.87 103.498C789.492 100.744 789.585 100.502 791.608 98.96C794.349 96.8705 802.636 94.1601 808.336 93.4892C814.509 92.7624 814.996 92.758 817.787 93.4055ZM842.639 99.2746C842.099 100.046 841.868 100.862 842.127 101.088C842.547 101.456 861.716 104.227 916.829 111.885C926.6 113.242 935.374 114.49 936.326 114.657C937.954 114.942 938.121 114.747 939.086 111.427C939.651 109.484 939.871 107.686 939.574 107.431C939.278 107.175 924.76 105.624 907.312 103.982C866.105 100.105 850.965 98.662 846.916 98.2269C844.017 97.9149 843.504 98.0405 842.639 99.2746ZM1164 100.18C1162.5 102.083 1162.42 102.549 1163.34 104.258C1163.75 105.033 1164.67 105.485 1165.82 105.485C1168.04 105.485 1169.18 103.024 1168.24 100.253C1167.49 98.0227 1165.72 97.9923 1164 100.18ZM1200.23 103.782C1198.6 105.518 1198.48 106.925 1199.84 108.294C1202.46 110.911 1205.68 107.905 1204.39 104.045C1203.68 101.913 1202.08 101.812 1200.23 103.782ZM754.035 110.816C745.152 114.506 737.027 122.1 732.779 130.683C728.517 139.293 729.296 146.012 735.08 150.545C737.004 152.053 754.962 160.093 837.364 196.342L856.24 204.646L854.865 206.108C852.439 208.69 853.824 210.101 862.171 213.555C866.206 215.226 869.734 216.574 870.01 216.552C870.287 216.53 870.657 215.573 870.832 214.426C871.104 212.642 871.38 212.366 872.735 212.522C881.048 213.481 882.19 213.433 885.131 212.011C888.461 210.399 891.534 206.618 892.141 203.387C892.362 202.207 892.665 201.242 892.815 201.242C892.965 201.242 894.207 201.813 895.574 202.51C896.942 203.208 898.421 203.779 898.86 203.779C899.299 203.779 901.149 202.307 902.972 200.508L906.286 197.237L917.087 202.093C923.027 204.764 928.145 206.949 928.459 206.949C928.999 206.949 933.008 198.655 933.008 197.538C933.008 197.091 918.996 190.622 886.459 176.047C881.192 173.688 878.699 172.865 878.164 173.309C877.653 173.732 877.187 173.732 876.765 173.31C876.341 172.887 875.731 173.116 874.933 173.997C873.91 175.126 873.871 175.403 874.663 175.896C875.421 176.369 875.222 176.841 873.557 178.51C871.723 180.349 871.367 180.474 869.879 179.797C868.974 179.384 867.734 179.047 867.125 179.047C866.516 179.047 857.75 175.38 847.645 170.898C837.541 166.418 816.756 157.235 801.458 150.493L773.642 138.236L775.762 137.141C776.927 136.538 778.024 136.132 778.199 136.238C778.373 136.345 786.082 139.765 795.329 143.837C804.577 147.91 812.999 151.634 814.046 152.111C815.093 152.589 821.231 155.299 827.687 158.134C834.143 160.97 840.256 163.697 841.272 164.195C842.288 164.693 843.24 164.982 843.385 164.836C843.531 164.69 842.913 159.989 842.013 154.39C841.113 148.789 840.376 144.1 840.376 143.967C840.376 143.835 846.3 145.656 853.541 148.014C864.858 151.701 893.875 161.083 914.782 167.816C919.693 169.399 920.896 170.015 920.568 170.784C919.808 172.568 919.649 174.284 920.171 175.064C920.454 175.49 924.245 176.946 928.592 178.3L936.497 180.762L936.851 178.773C937.446 175.428 937.812 175.197 940.796 176.296C949.619 179.543 958.479 175.167 960.269 166.681C960.607 165.075 960.968 164.778 962.588 164.778C964.098 164.778 965.195 164.036 967.741 161.29L970.977 157.803L981.654 161.427C987.526 163.421 992.721 165.133 993.198 165.232C993.773 165.352 994.664 163.661 995.838 160.218L997.611 155.024L990.846 152.715C958.389 141.64 940.994 136.012 940.388 136.392C939.993 136.641 939.194 136.766 938.612 136.67C937.486 136.485 936.45 138.626 937.131 139.728C937.35 140.082 936.912 141.239 936.156 142.299C934.871 144.104 934.594 144.201 931.833 143.831C930.211 143.613 908.042 136.712 882.568 128.496C857.094 120.28 834.914 113.152 833.278 112.656L830.305 111.755L824.713 117.371C820.189 121.916 818.092 123.493 813.729 125.63C807.031 128.911 801.673 130.195 794.638 130.207C781.113 130.231 767.693 123.291 760.356 112.48C759.178 110.743 758.071 109.327 757.896 109.333C757.722 109.339 755.984 110.006 754.035 110.816ZM1073.67 114.125C1073.07 114.733 1073.12 116.392 1073.79 117.441C1074.65 118.8 1077.16 117.182 1076.91 115.43C1076.72 114.061 1074.59 113.206 1073.67 114.125ZM720.148 118.932C716.571 122.079 715.387 124.57 715.387 128.949C715.387 132.242 716.764 136.558 717.815 136.558C719.109 136.558 719.933 134.769 719.238 133.47C718.25 131.625 718.408 126.605 719.529 124.245C720.062 123.123 721.775 121.397 723.336 120.411C725.032 119.339 726.173 118.145 726.173 117.442C726.173 115.383 723.403 116.069 720.148 118.932ZM725.564 122.365C724.478 123.279 723.171 124.834 722.661 125.822C720.844 129.333 722.043 134.973 724.606 134.973C725.908 134.973 725.908 134.974 725.123 130.089C724.782 127.968 724.996 127.487 727.359 125.077C729.389 123.007 729.815 122.221 729.264 121.558C728.278 120.37 727.818 120.47 725.564 122.365ZM1111.08 132.542C1110.27 133.35 1110.66 135.79 1111.66 136.173C1113.53 136.889 1114.46 136.565 1114.46 135.201C1114.46 133.366 1112.11 131.515 1111.08 132.542ZM1013.26 150.018C1007.33 153.538 1002.29 156.717 1002.05 157.081C1001.09 158.538 1002.38 158.542 1007.36 157.097C1010.22 156.264 1012.8 155.583 1013.09 155.583C1013.38 155.583 1013.01 156.752 1012.28 158.181C1011.55 159.61 1011.12 160.942 1011.32 161.141C1011.62 161.437 1021.71 159.361 1028.13 157.681L1029.67 157.279L1027.97 159.503C1027.04 160.727 1026.27 161.914 1026.27 162.143C1026.27 162.372 1028.06 162.592 1030.24 162.634C1032.42 162.675 1035.06 162.892 1036.11 163.115L1038.01 163.522L1035 165.287C1033.34 166.257 1031.98 167.201 1031.98 167.383C1031.98 167.565 1034.34 168.801 1037.22 170.13L1042.45 172.545L1037.22 173.008C1034.34 173.263 1031.98 173.592 1031.98 173.738C1031.98 173.885 1033.01 176.048 1034.27 178.545C1036.39 182.76 1036.45 183.015 1035.06 182.108C1030.3 178.991 1026.8 177.038 1026.51 177.331C1026.33 177.515 1026.5 180.427 1026.91 183.803C1027.31 187.178 1027.52 190.061 1027.37 190.209C1027.22 190.357 1023.85 186.932 1019.87 182.597C1015.89 178.264 1012.45 174.693 1012.22 174.663C1011.99 174.632 1011.43 176.034 1010.99 177.778C1010.54 179.522 1010.01 180.947 1009.82 180.943C1009.62 180.94 1007.19 177.364 1004.42 172.996C999.618 165.433 999.338 165.122 998.572 166.501C998.13 167.297 997.758 168.377 997.747 168.9C997.727 169.79 1006.46 191.716 1007.75 194.03C1008.22 194.869 1008.92 193.889 1011.12 189.266L1013.9 183.445L1023.72 194.524C1029.12 200.617 1033.65 205.496 1033.78 205.367C1033.91 205.237 1033.39 201.406 1032.63 196.852C1031.86 192.299 1031.34 188.296 1031.45 187.959C1031.57 187.622 1035.8 189.314 1040.85 191.72C1045.9 194.125 1050.15 195.977 1050.3 195.835C1050.44 195.693 1048.23 191.95 1045.4 187.517C1042.56 183.085 1040.37 179.332 1040.52 179.178C1040.68 179.024 1046.68 179.257 1053.86 179.695C1061.04 180.134 1067.03 180.38 1067.16 180.243C1067.3 180.106 1061.87 177.428 1055.09 174.291C1048.31 171.155 1042.78 168.445 1042.79 168.269C1042.8 168.093 1047.12 165.962 1052.39 163.535C1063.41 158.454 1063.43 158.546 1050.93 157.799C1046.62 157.542 1041.82 157.15 1040.27 156.929L1037.44 156.529L1041.06 152.27C1043.05 149.928 1044.67 147.867 1044.67 147.691C1044.67 147.335 1045.07 147.269 1031.14 149.89C1025.61 150.928 1020.97 151.778 1020.82 151.778C1020.67 151.778 1021.42 150.037 1022.5 147.909C1023.57 145.781 1024.36 143.944 1024.24 143.828C1024.12 143.711 1019.18 146.497 1013.26 150.018ZM1187.46 147.212C1186.55 150.489 1187.62 151.449 1191.54 150.862C1194.46 150.424 1194.48 150.399 1194.06 148.404C1193.53 145.854 1193.32 145.678 1190.46 145.245C1188.18 144.9 1188.08 144.968 1187.46 147.212ZM1165.7 149.038C1164.38 149.389 1164.38 149.371 1165.32 151.431C1166.17 153.281 1166.45 153.363 1168.02 152.212C1170.3 150.552 1168.61 148.259 1165.7 149.038ZM963.462 155.251C965.381 155.868 967.165 156.566 967.427 156.801C967.687 157.037 966.828 158.278 965.516 159.558C962.435 162.565 961.061 162.228 959.187 158.004C957.789 154.854 957.81 153.335 959.243 153.862C959.644 154.01 961.543 154.635 963.462 155.251ZM1134.86 159.547C1134.46 159.948 1134.13 161.386 1134.13 162.741V165.207L1136.83 164.762C1140.13 164.217 1140.09 164.253 1139.59 162.283C1139.09 160.293 1135.94 158.47 1134.86 159.547ZM749.907 163.668C750.105 164.628 752.849 181.821 756.004 201.876C759.16 221.931 762.163 240.796 762.677 243.797C763.53 248.77 763.503 250.567 762.375 264.048C761.695 272.185 761.271 279.058 761.435 279.323C761.812 279.932 803.56 279.988 803.629 279.378C803.658 279.13 804.015 275.075 804.423 270.369L805.164 261.813L811.825 260.745C822.56 259.025 821.12 258.074 825.207 269.576L828.754 279.56L850.823 279.707C862.961 279.788 873.12 279.714 873.4 279.54C873.679 279.368 873.042 276.876 871.982 274.003C853.334 223.427 852.833 221.957 851.5 213.938L850.185 206.024L828.943 196.634C817.26 191.469 803.276 185.296 797.867 182.916C792.458 180.535 779.541 174.838 769.162 170.256C758.783 165.674 750.124 161.925 749.919 161.925C749.715 161.925 749.709 162.709 749.907 163.668ZM1087.84 165.05C1087.31 166.034 1088.58 170.169 1089.4 170.169C1089.76 170.169 1093.6 168.314 1094.05 167.924C1094.17 167.823 1093.8 167.035 1093.23 166.17C1091.97 164.239 1088.64 163.549 1087.84 165.05ZM1068.27 169.67C1067.85 170.084 1067.51 171.079 1067.51 171.881C1067.51 173.079 1067.85 173.339 1069.42 173.339C1070.84 173.339 1071.32 173.046 1071.32 172.169C1071.32 170.43 1069.22 168.714 1068.27 169.67ZM690.009 171.035C688.787 171.48 676.939 178.784 663.678 187.266C650.418 195.747 637.064 204.288 634.002 206.245C616.327 217.542 615.188 218.376 613.492 221.269C611.078 225.387 610.767 230.978 612.73 234.956C613.601 236.719 625.014 250.099 640.995 268.091L667.8 298.268H630.368H-5C-5 315.178 -5 302.089 -5 319H1367V283.048L1180.61 283.051L1133.82 283.054L1112.99 290.661C1092.61 298.107 1092.06 298.267 1086.98 298.238L1081.79 298.209L1097.97 292.283C1127.97 281.291 1187.69 259.494 1194.91 256.9C1199.21 255.354 1202.32 253.867 1202.69 253.179C1203.13 252.363 1201.47 240.766 1196.94 212.937C1193.44 191.435 1190.28 173.301 1189.93 172.639C1188.9 170.719 1186.66 171.153 1174.34 175.646L1162.81 179.855L1157.26 188.042L1151.71 196.228L1147.85 196.089C1144.49 195.968 1143.43 195.59 1139.74 193.205C1137.41 191.696 1135.11 190.461 1134.65 190.461C1132.81 190.461 1095.04 204.569 1093.91 205.678C1092.72 206.839 1092.75 207.151 1095.35 223.203C1096.8 232.193 1098.29 239.733 1098.66 239.96C1099.03 240.187 1101.6 240.893 1104.39 241.528C1107.17 242.164 1109.58 242.893 1109.74 243.15C1109.9 243.406 1109.69 245.067 1109.28 246.841C1108.59 249.854 1108.27 250.234 1104.47 252.613C1100.78 254.93 1100.44 255.317 1100.77 256.897C1101.94 262.572 1105.01 283.198 1104.72 283.485C1104.53 283.674 1095.46 287.089 1084.57 291.073C1065.05 298.209 1064.69 298.315 1059.95 298.134L1055.14 297.951L1074.18 291.047C1084.64 287.249 1093.48 283.896 1093.81 283.595C1094.15 283.288 1018.08 283.048 920.445 283.048H746.476V290.658V298.268H744.572H742.669V289.072V279.877L749.172 279.777C752.749 279.722 756.026 279.689 756.453 279.704C757.474 279.74 757.687 278.22 758.883 262.438C759.86 249.549 759.852 248.871 758.627 241.357C757.812 236.362 756.948 233.07 756.201 232.125C755.236 230.903 724.757 196.442 712.921 183.19C704.98 174.299 702.636 172.169 699.692 171.167C696.194 169.975 693.03 169.932 690.009 171.035ZM1140.2 175.634C1139.69 177.636 1139.69 177.63 1142.07 177.889C1143.67 178.063 1143.93 177.896 1143.75 176.827C1143.22 173.792 1140.86 172.998 1140.2 175.634ZM1107.73 175.984C1106.72 176.742 1105.67 177.555 1105.39 177.79C1104.28 178.737 1106.57 181.744 1109.58 183.264C1111.29 184.131 1112.77 184.749 1112.86 184.638C1112.96 184.528 1113.65 183.23 1114.39 181.756L1115.74 179.075L1113.36 176.858C1110.54 174.242 1110.13 174.178 1107.73 175.984ZM1205.32 177.388C1202.4 179.493 1202.46 179.363 1203.52 181.425C1204.17 182.671 1205.46 183.656 1207.42 184.405C1209.03 185.019 1210.41 185.421 1210.5 185.297C1211.36 184 1213.87 177.094 1213.55 176.895C1213.31 176.751 1211.84 176.464 1210.27 176.258C1207.9 175.946 1207.05 176.141 1205.32 177.388ZM1142.53 182.782C1141.74 183.463 1140.79 184.121 1140.42 184.244C1140.01 184.38 1139.92 185.166 1140.19 186.225C1140.51 187.5 1141.5 188.42 1143.8 189.588C1145.55 190.472 1147.19 190.959 1147.44 190.669C1148.38 189.613 1150.84 182.855 1150.44 182.451C1150.21 182.221 1148.66 181.924 1146.99 181.789C1144.66 181.6 1143.64 181.829 1142.53 182.782ZM1084.21 186.427C1083.4 186.759 1084.34 190.461 1085.24 190.461C1086.08 190.461 1087.82 188.179 1087.82 187.082C1087.82 186.05 1085.97 185.714 1084.21 186.427ZM946.987 194.658C932.842 201.511 931.69 202.803 941.35 200.983C944.22 200.442 946.687 200.117 946.831 200.262C946.975 200.406 946.312 201.55 945.356 202.803C944.399 204.056 943.796 205.261 944.016 205.48C944.363 205.828 952.177 205.091 959.972 203.976L962.51 203.613L960.401 205.836L958.292 208.059L960.401 208.423C961.561 208.624 963.938 208.981 965.683 209.216C970.596 209.879 970.862 210.34 967.293 212.011C965.535 212.834 964.105 213.673 964.115 213.875C964.126 214.077 966.481 215.601 969.35 217.263L974.565 220.284L969.013 219.871C965.96 219.644 963.463 219.569 963.464 219.704C963.466 219.839 964.299 222.177 965.316 224.9C966.334 227.622 966.833 229.598 966.425 229.289C966.016 228.981 964.015 227.396 961.976 225.766C959.937 224.137 958.082 222.803 957.852 222.802C957.622 222.801 957.524 226.012 957.634 229.936L957.832 237.072L955.096 233.553C953.59 231.617 950.503 227.565 948.235 224.548C945.967 221.53 943.926 219.047 943.698 219.03C943.472 219.012 942.773 220.426 942.145 222.17C941.518 223.915 940.813 225.128 940.579 224.866C940.345 224.603 938.352 220.893 936.151 216.62C933.951 212.348 931.949 208.852 931.705 208.852C931.459 208.852 930.908 209.698 930.479 210.732C929.782 212.414 930.077 213.859 933.295 224.524C935.272 231.077 937.035 236.941 937.215 237.557C937.689 239.185 938.3 238.553 941.362 233.27C942.874 230.661 944.306 228.523 944.544 228.518C944.781 228.515 946.771 231.008 948.966 234.06C951.16 237.112 955.072 242.462 957.658 245.95L962.362 252.292L961.894 242.938C961.637 237.793 961.558 233.584 961.719 233.584C961.88 233.584 965.974 235.99 970.817 238.931C975.66 241.871 979.715 244.184 979.829 244.072C979.942 243.958 978.016 239.84 975.55 234.92C973.085 230 971.201 225.974 971.365 225.974C972.124 225.974 995.632 229.882 996.613 230.172C999.804 231.112 996.56 228.792 986.309 222.803C980.04 219.141 974.905 215.981 974.897 215.781C974.889 215.58 979.308 213.88 984.716 212.002C990.125 210.125 994.551 208.427 994.551 208.23C994.551 208.033 989.768 207.068 983.923 206.085C978.079 205.103 972.651 204.15 971.863 203.968C970.551 203.666 970.779 203.297 974.56 199.592C976.831 197.366 978.689 195.428 978.689 195.284C978.689 195.14 977.19 195.153 975.358 195.312C973.526 195.471 968.102 195.949 963.303 196.375C958.506 196.8 954.581 196.999 954.584 196.817C954.586 196.635 955.171 195.63 955.883 194.583C957.861 191.677 959.109 189.187 958.561 189.241C958.29 189.268 953.082 191.706 946.987 194.658ZM899.223 194.043C901.404 194.968 903.188 195.911 903.188 196.14C903.188 196.367 902.203 197.509 900.998 198.676L898.809 200.796L895.781 199.487C892.259 197.963 891.041 195.486 892.837 193.502C894.178 192.022 894.528 192.051 899.223 194.043ZM1084.47 202.358C1083.73 203.171 1083.55 204.201 1083.82 206.162C1084.17 208.8 1084.22 208.852 1086.63 208.852C1087.98 208.852 1089.09 208.638 1089.1 208.376C1089.11 208.114 1089.37 206.823 1089.67 205.506C1090.19 203.27 1090.11 203.05 1088.42 202.177C1086.11 200.983 1085.69 201.002 1084.47 202.358ZM1212.93 206.861C1211.73 207.618 1212.64 210.879 1213.98 210.622C1215.09 210.408 1216.72 207.644 1216.22 206.826C1215.81 206.167 1213.99 206.186 1212.93 206.861ZM1160.1 212.314C1161.8 213.195 1162.66 214.829 1162.67 217.242C1162.68 217.882 1161.66 218.861 1160.22 219.595L1157.75 220.852L1155.46 218.893C1153.57 217.28 1153.17 216.509 1153.17 214.525C1153.17 212.763 1153.47 212.038 1154.28 211.826C1156.48 211.25 1158.34 211.406 1160.1 212.314ZM1064.45 221.86C1063.72 222.782 1063.34 223.987 1063.53 224.723C1063.91 226.178 1064.06 226.289 1066.33 226.831C1067.76 227.171 1068.12 226.951 1068.8 225.305C1070.48 221.255 1067.06 218.546 1064.45 221.86ZM1145.77 225.795L1148.6 228.787L1146.48 232.999L1144.36 237.21L1140.99 236.954C1133.97 236.421 1133.59 236.263 1131.62 233.107L1129.79 230.158L1132.31 227.145C1134.23 224.848 1135.47 223.991 1137.5 223.536C1142.21 222.481 1142.79 222.64 1145.77 225.795ZM1081.7 224.094C1077.93 225.535 1077.85 230.413 1081.59 230.413C1084.09 230.413 1085.24 227.984 1083.96 225.395C1083.22 223.899 1082.82 223.668 1081.7 224.094ZM1217.56 224.065C1216.87 224.335 1215.79 225.124 1215.16 225.817C1213.59 227.568 1214.76 230.184 1217.29 230.555C1218.79 230.775 1219.22 230.515 1219.85 228.988C1220.91 226.44 1219.46 223.332 1217.56 224.065ZM1072.25 243.28C1071.31 247.008 1075.08 250.036 1077.43 247.441C1078.82 245.913 1077.78 243.349 1075.41 242.449C1073.05 241.554 1072.66 241.658 1072.25 243.28ZM1208.02 243.28C1207.09 247.008 1210.86 250.036 1213.21 247.441C1214.59 245.913 1213.55 243.349 1211.19 242.449C1208.83 241.554 1208.43 241.658 1208.02 243.28ZM1094.91 245.832C1094.15 246.639 1093.53 247.567 1093.53 247.893C1093.54 248.482 1097.36 251.34 1098.14 251.34C1098.95 251.34 1099.34 247.006 1098.64 245.699C1097.71 243.972 1096.62 244.011 1094.91 245.832ZM1059.47 263.782C1058.92 264.013 1058.9 264.6 1059.37 265.963C1060.1 268.058 1060.44 268.185 1062.07 266.994C1064.33 265.339 1062.15 262.646 1059.47 263.782ZM1197.08 263.914C1196.47 264.311 1196.42 264.876 1196.9 266.137C1197.26 267.067 1197.77 267.824 1198.04 267.819C1199.16 267.797 1200.1 266.724 1200.26 265.266C1200.39 264.117 1200.1 263.668 1199.16 263.546C1198.47 263.456 1197.53 263.621 1197.08 263.914ZM1216.9 266.849C1216.04 267.705 1215.34 268.684 1215.34 269.024C1215.34 269.742 1218.72 272.267 1219.67 272.267C1220.67 272.267 1221.18 268.875 1220.46 266.987C1219.66 264.886 1218.89 264.856 1216.9 266.849ZM987.101 269.177C986.103 271.82 986.957 272.905 990.028 272.892C993.486 272.877 994.251 272.163 993.527 269.627C992.988 267.735 992.656 267.492 990.397 267.323C988.068 267.15 987.812 267.294 987.101 269.177ZM1030.13 269.36C1028.38 271.222 1028.81 273.326 1031.13 274.206C1033.39 275.067 1033.53 275.008 1034.35 272.851C1034.89 271.414 1034.9 270.495 1034.38 269.364C1033.49 267.41 1031.96 267.409 1030.13 269.36ZM1085.5 269.434C1085.29 269.985 1085.38 271.348 1085.69 272.461C1086.17 274.129 1086.63 274.522 1088.31 274.685C1089.98 274.848 1090.48 274.591 1091.1 273.231C1091.74 271.821 1091.67 271.409 1090.63 270.415C1088.85 268.722 1085.98 268.175 1085.5 269.434ZM1177.12 270.168C1175.21 270.666 1175.73 274.136 1178.14 276.985L1180.25 279.482L1183.52 276.727C1185.32 275.211 1186.79 273.745 1186.79 273.468C1186.79 273.192 1185.84 272.238 1184.67 271.348C1182.64 269.798 1180.07 269.397 1177.12 270.168ZM1161.81 275.154C1161.33 276.387 1161.29 279.539 1161.74 279.988C1162.45 280.699 1166.8 279.502 1166.99 278.544C1167.43 276.23 1162.61 273.072 1161.81 275.154ZM1205.31 274.715C1204.12 275.472 1205.03 278.733 1206.36 278.476C1207.48 278.262 1209.11 275.498 1208.61 274.681C1208.2 274.021 1206.38 274.04 1205.31 274.715Z" fill="#666666"/>
</svg>
